<?xml version="1.0" standalone="no"?>
<!DOCTYPE svg PUBLIC "-//W3C//DTD SVG 20010904//EN"
 "http://www.w3.org/TR/2001/REC-SVG-20010904/DTD/svg10.dtd">
<svg version="1.0" xmlns="http://www.w3.org/2000/svg"
 width="1280.000000pt" height="1162.000000pt" viewBox="0 0 1280.000000 1162.000000"
 preserveAspectRatio="xMidYMid meet">
<g transform="translate(0.000000,1162.000000) scale(0.100000,-0.100000)"
fill="#000000" stroke="none">
<path d="M11331 8600 c-805 -825 -1468 -1500 -1472 -1500 -13 0 -11 28 7 90
11 36 18 115 21 231 5 156 3 189 -17 290 -38 189 -85 277 -292 543 -85 108
-103 126 -275 248 -143 102 -276 240 -426 439 -230 306 -429 456 -702 529
-235 63 -512 191 -634 292 -117 98 -243 181 -312 205 -72 25 -119 30 -529 54
-155 9 -196 8 -255 -4 -101 -22 -302 -116 -424 -201 -145 -99 -342 -209 -475
-263 -191 -78 -267 -117 -391 -200 -211 -142 -390 -320 -487 -486 -43 -74
-187 -418 -188 -449 -1 -75 -152 -409 -244 -543 -73 -104 -195 -341 -231 -449
-14 -40 -32 -134 -42 -207 l-17 -134 -151 -171 c-82 -94 -215 -245 -295 -336
l-145 -166 -75 -27 c-107 -38 -178 -85 -254 -165 -87 -93 -142 -205 -161 -327
-6 -37 -34 -73 -236 -302 l-229 -260 -100 -2403 c-55 -1322 -102 -2465 -106
-2541 -4 -92 -3 -146 4 -160 6 -12 21 -46 33 -75 15 -36 39 -68 77 -102 l56
-50 127 0 127 0 55 50 c71 65 99 125 100 210 1 77 -12 117 -64 185 l-37 50
229 1095 c127 602 235 1098 242 1102 7 5 46 6 87 3 41 -3 239 -12 440 -20 201
-9 375 -18 386 -20 19 -4 22 -14 28 -82 4 -43 9 -289 11 -548 l5 -470 28 -55
c18 -36 44 -67 77 -92 27 -21 51 -41 52 -45 2 -5 -293 -312 -655 -683 l-659
-675 252 -3 252 -2 95 97 c53 54 1228 1258 2611 2677 2441 2501 2519 2580
2627 2653 126 85 185 147 250 261 41 73 193 231 1774 1852 951 974 1789 1833
1863 1908 l133 137 -3 258 -2 257 -1464 -1500z m-7413 -2359 c3 -8 -1 -12 -9
-9 -7 2 -15 10 -17 17 -3 8 1 12 9 9 7 -2 15 -10 17 -17z m226 -337 c87 -95
121 -121 336 -265 115 -77 167 -119 229 -186 45 -48 81 -91 81 -96 0 -6 -15
-24 -33 -41 -185 -174 -421 -392 -430 -397 -7 -4 -176 38 -375 92 -200 54
-373 99 -384 99 -22 0 -542 99 -564 107 -8 3 -14 10 -14 17 1 14 77 96 90 96
5 0 34 -16 64 -35 30 -19 90 -47 133 -62 68 -23 93 -27 193 -27 93 1 128 5
180 23 203 70 359 239 406 437 16 69 15 248 -1 302 -12 39 8 24 89 -64z m1061
-1044 c197 -198 295 -252 551 -305 99 -21 147 -38 299 -109 99 -46 200 -91
225 -99 93 -32 247 -77 310 -91 96 -22 301 -31 389 -17 41 7 78 8 83 3 7 -7
-2387 -2472 -2409 -2479 -5 -2 -32 23 -61 56 l-52 59 20 344 c11 188 27 375
35 413 15 68 52 642 42 651 -2 3 -290 41 -638 84 -749 94 -699 87 -699 106 0
12 139 684 200 972 11 49 14 52 42 52 16 0 228 -25 470 -55 l440 -55 92 84
c50 46 190 177 311 290 121 113 225 206 230 206 6 0 60 -50 120 -110z"/>
</g>
</svg>
