<?xml version="1.0" standalone="no"?>
<!DOCTYPE svg PUBLIC "-//W3C//DTD SVG 20010904//EN"
 "http://www.w3.org/TR/2001/REC-SVG-20010904/DTD/svg10.dtd">
<svg version="1.0" xmlns="http://www.w3.org/2000/svg"
 width="725.000000pt" height="1280.000000pt" viewBox="0 0 725.000000 1280.000000"
 preserveAspectRatio="xMidYMid meet">
<metadata>
Created by potrace 1.15, written by Peter Selinger 2001-2017
</metadata>
<g transform="translate(0.000000,1280.000000) scale(0.100000,-0.100000)"
fill="#000000" stroke="none">
<path d="M3699 12549 c-74 -10 -150 -45 -226 -103 -122 -93 -170 -186 -242
-473 -71 -280 -75 -318 -61 -481 14 -166 36 -254 91 -369 29 -59 42 -99 40
-123 -5 -96 -49 -144 -168 -184 -162 -53 -310 -76 -538 -81 -205 -5 -339 -23
-527 -70 -191 -48 -349 -65 -613 -65 -237 0 -311 -8 -420 -45 -38 -13 -71 -22
-73 -20 -2 2 3 16 11 32 19 39 31 101 72 378 77 518 132 814 156 839 5 5 58
-2 131 -17 71 -16 155 -27 198 -27 41 0 97 -7 125 -15 48 -15 51 -15 102 11
124 60 104 141 -32 130 l-60 -5 51 20 c50 19 74 47 74 87 0 10 -18 49 -41 87
-23 39 -52 94 -66 123 -35 72 -61 88 -158 95 -70 5 -83 3 -105 -14 -70 -55
-143 -99 -217 -128 -102 -41 -163 -79 -196 -123 -38 -50 -105 -184 -113 -226
-4 -20 -51 -141 -105 -269 -122 -288 -175 -435 -229 -628 -23 -82 -56 -204
-75 -270 -18 -66 -38 -147 -45 -180 -6 -33 -23 -95 -37 -139 -31 -94 -28 -156
9 -192 13 -13 69 -41 123 -61 l100 -37 190 -1 c339 -2 826 13 975 30 413 46
518 47 631 10 96 -32 182 -127 235 -258 31 -77 32 -81 18 -121 -44 -121 -56
-279 -29 -357 9 -24 31 -69 49 -99 22 -35 40 -84 50 -135 9 -43 29 -122 45
-175 35 -114 85 -297 141 -515 59 -227 58 -262 -14 -484 -56 -172 -79 -284
-91 -436 -13 -177 -28 -267 -65 -410 -52 -196 -95 -406 -111 -530 -15 -123 -7
-751 15 -1205 29 -598 41 -928 40 -1135 -1 -198 -3 -216 -29 -310 -15 -55 -34
-131 -42 -170 -21 -110 -34 -601 -23 -910 46 -1286 50 -1235 -149 -1630 -108
-214 -164 -298 -271 -406 -62 -63 -104 -96 -155 -122 -85 -42 -99 -57 -124
-129 -10 -30 -25 -65 -32 -76 -11 -18 -11 -25 -1 -40 7 -9 15 -24 18 -32 13
-35 22 -45 45 -48 13 -2 36 -15 52 -28 38 -32 108 -32 180 0 30 13 58 29 61
35 4 6 23 11 42 11 89 0 178 79 275 242 38 64 82 129 98 145 38 39 116 76 222
107 102 30 175 77 206 132 36 63 32 161 -11 274 -85 219 -77 380 44 870 53
215 102 449 176 840 25 134 26 157 20 305 -4 88 -11 194 -16 235 -14 115 -12
292 5 374 8 40 29 113 45 162 53 154 108 557 130 939 21 369 36 498 79 670 22
88 49 187 61 220 64 182 140 544 140 665 0 68 15 83 74 75 l48 -8 -6 -41 c-11
-81 -16 -154 -26 -326 -12 -218 -26 -387 -46 -555 -62 -531 -89 -978 -67
-1115 13 -84 -2 -185 -52 -339 -79 -249 -80 -253 -80 -636 0 -187 4 -475 9
-640 l8 -300 -31 -155 c-17 -85 -38 -190 -47 -232 -19 -87 -15 -178 10 -226
23 -45 79 -79 165 -100 86 -22 96 -33 142 -142 17 -41 45 -94 61 -118 28 -41
100 -102 120 -102 5 0 20 -13 34 -29 48 -57 160 -77 194 -36 8 9 21 13 35 9
30 -7 65 4 65 20 0 7 10 17 22 23 14 6 25 26 34 59 27 102 21 114 -101 216
-49 41 -109 99 -132 129 -61 79 -201 304 -236 378 -28 59 -29 68 -24 150 4 63
25 154 77 341 200 720 306 1215 320 1490 10 183 31 282 93 440 25 63 66 198
92 300 26 102 74 280 106 395 33 116 73 264 90 330 16 66 55 201 85 300 138
447 148 507 141 830 -5 238 -14 313 -63 515 -61 247 -133 433 -255 651 -45 79
-88 162 -96 184 -11 30 -18 117 -26 341 l-10 301 27 169 c19 116 36 188 54
229 24 53 27 72 26 160 0 63 -6 119 -16 152 -18 55 -17 64 14 163 32 100 75
178 131 238 65 68 102 87 212 107 95 18 158 16 454 -11 228 -21 1130 -20 1221
2 84 19 203 78 252 124 59 57 52 106 -33 235 -25 39 -73 115 -106 170 -242
405 -328 526 -542 765 -255 286 -303 342 -363 422 -119 160 -195 202 -390 213
-76 4 -129 14 -199 37 -108 35 -121 33 -198 -22 -28 -21 -41 -39 -49 -71 -5
-24 -22 -89 -35 -144 -14 -55 -23 -112 -20 -128 8 -39 48 -67 97 -68 l41 -1
-50 -8 c-137 -20 -166 -97 -49 -130 74 -21 115 -16 185 22 35 19 91 41 124 48
58 12 178 70 241 116 21 15 35 19 46 13 26 -15 125 -193 296 -534 89 -176 181
-356 206 -400 l44 -80 -311 -2 c-349 -3 -464 5 -618 41 -165 39 -321 56 -522
56 -276 0 -545 37 -603 82 -14 12 -33 36 -40 54 -20 48 -17 175 6 271 20 84
68 187 88 189 7 1 17 2 23 3 19 2 130 115 154 156 13 22 31 66 40 98 15 53 15
60 1 82 -10 16 -26 25 -42 25 -20 0 -24 4 -20 18 44 137 61 352 37 456 -31
133 -106 225 -232 288 -128 64 -224 79 -370 57z"/>
</g>
</svg>
