<?xml version="1.0" standalone="no"?>
<!DOCTYPE svg PUBLIC "-//W3C//DTD SVG 20010904//EN"
 "http://www.w3.org/TR/2001/REC-SVG-20010904/DTD/svg10.dtd">
<svg version="1.0" xmlns="http://www.w3.org/2000/svg"
 width="960.000000pt" height="1280.000000pt" viewBox="0 0 960.000000 1280.000000"
 preserveAspectRatio="xMidYMid meet">
<g transform="translate(0.000000,1280.000000) scale(0.100000,-0.100000)"
fill="#000000" stroke="none">
<path d="M5907 12185 c-64 -18 -78 -32 -144 -144 -31 -52 -73 -122 -94 -154
-25 -39 -39 -72 -39 -93 0 -29 -5 -36 -39 -53 -57 -30 -69 -78 -26 -107 21
-14 45 -15 178 -9 147 7 155 6 197 -15 39 -20 48 -21 77 -11 29 11 36 10 59
-8 15 -12 38 -21 51 -21 30 0 121 73 133 106 11 27 89 54 159 54 45 0 48 -2
134 -92 90 -94 226 -259 329 -398 30 -41 72 -95 92 -119 43 -52 41 -55 -49
-90 -69 -27 -215 -107 -296 -161 -98 -67 -116 -72 -319 -80 -262 -11 -334 -38
-500 -185 -99 -87 -131 -99 -259 -92 -105 6 -316 48 -334 66 -7 7 0 33 19 73
24 53 28 75 28 143 -1 154 -22 460 -32 487 -6 15 -21 74 -32 130 -17 85 -32
124 -91 237 -76 148 -127 220 -189 270 -198 159 -552 118 -741 -86 -101 -108
-149 -207 -170 -349 -13 -81 -3 -191 27 -307 15 -58 15 -58 -12 -90 -23 -27
-26 -37 -21 -78 11 -95 82 -191 170 -234 36 -17 48 -31 78 -93 45 -91 66 -180
53 -230 -7 -30 -19 -43 -64 -70 -71 -42 -168 -72 -236 -72 -58 0 -93 11 -270
84 -184 77 -304 79 -504 10 -132 -46 -199 -48 -322 -11 -110 33 -227 55 -334
64 -46 3 -84 9 -84 12 0 3 13 60 30 126 16 66 48 197 71 290 52 216 125 446
146 463 33 24 197 6 236 -26 38 -33 11 -59 -36 -35 -32 16 -78 14 -84 -3 -5
-14 113 -114 133 -114 7 0 29 14 48 31 31 27 40 30 78 24 36 -6 49 -2 82 20
59 40 152 59 277 56 101 -3 107 -1 135 23 28 24 28 26 14 53 -8 15 -34 37 -56
47 -31 14 -44 28 -52 52 -14 46 -180 289 -225 330 -34 32 -42 34 -105 34 -38
0 -97 -9 -137 -20 -39 -12 -148 -36 -242 -55 -123 -25 -190 -44 -233 -65 -88
-44 -195 -151 -254 -251 -80 -137 -115 -189 -206 -299 -164 -198 -243 -340
-329 -592 -69 -203 -105 -366 -91 -416 22 -85 123 -157 352 -252 42 -17 94
-44 115 -59 219 -158 383 -238 565 -276 98 -21 257 -19 380 5 169 33 230 23
263 -40 9 -17 29 -87 45 -157 39 -173 75 -271 186 -507 95 -201 143 -290 216
-398 21 -31 64 -106 95 -165 31 -59 81 -146 110 -192 73 -117 82 -164 53 -288
-19 -79 -21 -108 -15 -172 18 -167 15 -186 -44 -290 -41 -74 -57 -115 -72
-185 -32 -159 -50 -228 -79 -306 -35 -94 -50 -159 -61 -280 -4 -52 -12 -115
-17 -140 -5 -25 -15 -74 -22 -110 -7 -36 -21 -94 -31 -129 -11 -35 -19 -83
-19 -106 0 -22 -11 -79 -24 -125 -82 -282 -106 -426 -113 -672 -7 -225 6 -362
52 -546 38 -150 92 -271 156 -347 72 -86 71 -84 80 -243 5 -107 14 -173 33
-242 30 -113 32 -176 10 -407 -21 -220 -21 -522 0 -683 9 -69 31 -206 50 -305
40 -209 51 -301 66 -555 10 -159 9 -200 -5 -284 -30 -189 -117 -384 -246 -556
-87 -115 -195 -279 -209 -315 -17 -44 -11 -75 19 -114 15 -20 33 -46 40 -59 6
-12 18 -22 26 -22 8 0 26 -12 42 -26 21 -20 34 -24 56 -20 24 5 35 0 58 -25
27 -29 33 -31 74 -26 56 8 89 29 117 76 12 20 45 61 73 91 66 71 76 90 120
241 20 68 39 127 41 131 3 4 32 22 65 39 69 37 104 75 118 127 6 20 12 183 14
362 l4 325 37 155 c20 85 50 229 66 319 38 206 42 222 96 354 72 173 87 256
81 422 -6 158 -28 263 -102 504 l-47 149 26 114 c24 108 32 183 56 526 6 84
19 205 30 270 21 128 54 408 71 597 9 103 7 653 -3 720 -3 18 2 20 44 18 26 0
67 -9 92 -18 37 -14 48 -25 72 -73 15 -32 35 -64 44 -72 9 -8 38 -85 64 -170
71 -233 144 -408 291 -695 160 -313 226 -463 267 -604 39 -137 81 -227 153
-326 38 -53 62 -98 71 -135 19 -76 75 -183 137 -266 94 -123 96 -128 107 -265
26 -318 46 -389 185 -679 80 -166 104 -228 159 -415 102 -344 135 -511 136
-677 0 -56 6 -93 21 -130 14 -35 24 -89 28 -158 9 -121 28 -171 78 -203 38
-25 55 -70 73 -202 13 -92 45 -169 84 -205 15 -14 34 -41 42 -60 21 -50 52
-79 91 -86 43 -8 78 1 103 28 19 21 22 21 48 6 28 -16 72 -9 72 12 0 5 12 10
26 10 14 0 55 19 90 42 59 39 64 45 64 79 0 20 -11 55 -25 80 -14 24 -37 69
-52 99 -14 30 -53 97 -86 149 -68 108 -170 312 -192 385 -8 27 -15 72 -15 98
0 30 -16 97 -41 174 -47 146 -64 299 -56 504 7 164 -11 915 -24 1005 -29 206
-80 333 -212 527 -97 143 -114 187 -148 388 -19 116 -20 147 -14 440 7 333 1
438 -36 624 -44 217 -129 423 -272 656 -43 68 -77 132 -77 142 0 17 -27 70
-60 118 -51 74 -82 165 -91 265 -9 107 -16 141 -43 220 -15 41 -17 79 -15 215
3 143 0 178 -20 265 -35 154 -35 172 -11 270 21 84 22 102 15 297 -8 240 -4
270 60 398 24 47 72 160 108 252 37 91 93 224 126 295 81 176 115 275 171 508
67 277 74 336 66 542 -6 148 -4 177 9 204 23 43 79 65 220 84 217 29 320 66
475 170 124 82 221 172 343 320 57 69 139 153 192 197 112 94 192 180 216 233
11 23 19 64 19 96 0 53 -4 62 -59 139 -146 205 -336 398 -500 509 -64 44 -202
114 -295 151 -32 13 -111 57 -175 98 -213 136 -299 169 -541 207 -91 14 -205
37 -255 50 -101 28 -111 29 -178 10z m-2067 -11514 c0 -12 -20 -25 -27 -18 -7
7 6 27 18 27 5 0 9 -4 9 -9z"/>
</g>
</svg>
