<?xml version="1.0" standalone="no"?>
<!DOCTYPE svg PUBLIC "-//W3C//DTD SVG 20010904//EN"
 "http://www.w3.org/TR/2001/REC-SVG-20010904/DTD/svg10.dtd">
<svg version="1.0" xmlns="http://www.w3.org/2000/svg"
 width="1280.000000pt" height="1280.000000pt" viewBox="0 0 1280.000000 1280.000000"
 preserveAspectRatio="xMidYMid meet">
<g transform="translate(0.000000,1280.000000) scale(0.100000,-0.100000)"
fill="#000000" stroke="none">
<path d="M6025 10739 c-917 -74 -1702 -396 -2410 -987 -116 -98 -469 -451
-567 -567 -601 -719 -917 -1501 -989 -2445 -15 -196 -6 -676 15 -860 99 -843
397 -1549 932 -2209 139 -171 460 -496 624 -632 720 -596 1484 -906 2414 -979
166 -13 546 -13 712 0 934 74 1714 391 2429 988 116 98 469 451 567 567 484
580 785 1206 922 1920 52 276 76 542 76 865 0 1075 -324 1978 -998 2785 -98
116 -451 469 -567 567 -715 597 -1495 914 -2429 988 -148 12 -583 11 -731 -1z
m228 -806 c3 -5 -80 -181 -184 -392 -104 -211 -189 -393 -189 -404 0 -30 50
-288 60 -314 9 -21 17 -22 112 -25 l103 -3 0 -1128 0 -1129 -524 -304 c-288
-168 -530 -303 -537 -300 -7 3 -34 41 -60 86 -26 44 -50 83 -55 85 -15 10
-204 -36 -221 -53 -30 -31 -618 -932 -618 -947 0 -21 6 -20 615 16 l530 32 67
71 c38 39 70 79 74 89 3 11 -12 49 -42 99 -31 55 -44 86 -38 95 11 17 781 463
800 463 10 0 14 -26 16 -117 l3 -118 235 0 235 0 3 262 2 262 28 19 c15 10
114 68 219 128 106 60 195 115 198 122 6 15 -204 381 -226 395 -10 6 -42 -8
-108 -47 -52 -31 -99 -52 -103 -48 -4 4 -7 449 -6 988 l3 979 103 3 c95 3 103
4 112 25 10 26 60 284 60 314 0 11 -85 193 -189 404 -104 211 -187 387 -184
392 17 29 409 -16 693 -79 270 -61 730 -236 730 -278 0 -8 -26 -59 -58 -113
-32 -54 -97 -179 -145 -278 -70 -143 -85 -182 -75 -192 23 -22 311 -182 320
-177 15 9 235 339 288 433 30 51 60 95 67 98 14 6 154 -96 298 -216 115 -96
369 -350 466 -466 92 -109 219 -280 219 -293 0 -6 -48 -38 -107 -73 -139 -80
-433 -280 -433 -293 0 -16 173 -315 185 -320 14 -5 349 158 467 227 53 31 103
57 112 57 49 0 226 -474 290 -778 45 -212 85 -524 72 -557 -4 -12 -28 -15
-133 -15 -125 0 -415 -16 -480 -26 l-33 -5 0 -189 0 -189 33 -5 c65 -10 355
-26 480 -26 105 0 129 -3 133 -15 4 -8 1 -68 -6 -133 -36 -361 -116 -685 -245
-997 -52 -126 -93 -205 -108 -205 -6 0 -48 21 -92 47 -123 71 -476 244 -491
241 -18 -4 -194 -308 -187 -324 5 -15 317 -223 442 -294 51 -29 95 -59 98 -66
5 -15 -102 -163 -216 -299 -97 -116 -351 -370 -466 -466 -144 -120 -284 -222
-298 -216 -7 3 -38 47 -67 98 -71 125 -279 437 -294 442 -16 7 -320 -169 -324
-187 -3 -15 170 -368 241 -491 26 -44 47 -86 47 -92 0 -41 -465 -217 -730
-277 -217 -48 -568 -96 -605 -82 -12 4 -15 29 -15 138 0 129 -15 419 -26 486
l-5 32 -189 0 -189 0 -5 -32 c-11 -67 -26 -357 -26 -486 0 -109 -3 -134 -15
-138 -8 -4 -68 -1 -133 6 -361 36 -685 116 -997 245 -105 43 -201 91 -209 104
-3 5 17 49 45 98 28 48 96 178 151 287 80 162 96 202 86 212 -26 26 -303 182
-314 177 -15 -5 -223 -319 -294 -442 -29 -51 -60 -95 -67 -98 -14 -6 -154 96
-298 216 -115 96 -369 350 -466 466 -114 136 -221 284 -216 299 3 7 47 37 98
66 125 71 437 279 442 294 7 16 -169 320 -187 324 -15 3 -368 -170 -491 -241
-44 -26 -86 -47 -92 -47 -15 0 -56 79 -108 205 -129 312 -209 636 -245 997 -7
65 -10 125 -6 133 4 12 31 15 153 16 164 0 472 21 491 33 17 10 17 362 0 372
-19 12 -327 33 -491 33 -122 1 -149 4 -153 16 -13 33 27 345 72 557 63 298
241 778 288 778 8 0 59 -26 113 -58 54 -32 179 -97 278 -145 143 -70 182 -85
192 -75 22 23 182 311 177 320 -9 15 -339 235 -433 288 -51 30 -95 59 -98 66
-5 15 102 163 216 299 97 116 351 370 466 466 117 98 279 219 292 219 6 0 39
-48 74 -107 81 -140 280 -433 294 -433 13 0 311 176 319 188 7 12 -152 340
-226 465 -32 54 -58 105 -58 113 0 27 224 125 463 203 218 70 440 118 682 146
126 15 272 19 278 8z"/>
</g>
</svg>
